<svg xmlns="http://www.w3.org/2000/svg" xmlns:xlink="http://www.w3.org/1999/xlink" width="323" height="227" viewBox="0 0 323 227">
  <defs>
    <clipPath id="clip-Prancheta_1">
      <rect width="323" height="227"/>
    </clipPath>
  </defs>
  <g id="Prancheta_1" data-name="Prancheta – 1" clip-path="url(#clip-Prancheta_1)">
    <g id="Grupo_1092" data-name="Grupo 1092" transform="translate(972 -6867)">
      <path id="Caminho_1124" data-name="Caminho 1124" d="M0,0A24.247,24.247,0,0,0,9.534,2.243,32.816,32.816,0,0,0,20.052,0l.132,9.7s-5.638-.3-10.651-.3A20.42,20.42,0,0,1,.356,6.988Z" transform="matrix(0.819, -0.574, 0.574, 0.819, -900.101, 6962.216)" fill="#5e9dff"/>
      <path id="Caminho_1138" data-name="Caminho 1138" d="M0,0A12.653,12.653,0,0,0,4.975,1.17,17.125,17.125,0,0,0,10.464,0l.069,5.062s-2.942-.157-5.558-.157A10.656,10.656,0,0,1,.186,3.647Z" transform="matrix(0.819, -0.574, 0.574, 0.819, -691.817, 7055.348)" fill="#5e9dff"/>
      <path id="Caminho_1125" data-name="Caminho 1125" d="M0,2.877S6.729,0,10,0s6.617.215,6.617.215l.324,4.644s-3.674-.2-6.94-.2S.943,6.715.943,6.715Z" transform="matrix(0.819, -0.574, 0.574, 0.819, -950.256, 6983.803)" fill="#f667a7"/>
      <path id="Caminho_1126" data-name="Caminho 1126" d="M0,3.82S.16.758,5.173.758A26.1,26.1,0,0,0,12.494,0l.273,6.075s.062.607-4.951.607S1.448,9.708,1.448,9.708Z" transform="matrix(0.819, -0.574, 0.574, 0.819, -708.382, 6946.566)" fill="#f667a7"/>
      <path id="Caminho_1127" data-name="Caminho 1127" d="M0,4.924S8.007,0,13.02,0s7.032,4.924,7.032,4.924L18.9,10.346a7.317,7.317,0,0,0-6.682-4.679C7.208,5.667,0,14.324,0,14.324Z" transform="matrix(0.819, -0.574, 0.574, 0.819, -724.824, 6901.065)" fill="#3dcdd7"/>
      <path id="Caminho_1128" data-name="Caminho 1128" d="M0,1.206A40.325,40.325,0,0,1,9.437,0a30.653,30.653,0,0,1,6.655.442l-.468,6.636s-1.574.456-6.587.456A16.6,16.6,0,0,0,0,10.606Z" transform="matrix(0.819, -0.574, 0.574, 0.819, -937.035, 6915.697)" fill="#e0c8ff"/>
      <path id="Caminho_1129" data-name="Caminho 1129" d="M0,.841A28.107,28.107,0,0,1,6.577,0a21.365,21.365,0,0,1,4.638.308l-.326,4.625A19.9,19.9,0,0,1,6.3,5.251,11.568,11.568,0,0,0,0,7.392Z" transform="matrix(-0.208, 0.978, -0.978, -0.208, -927.562, 7047.185)" fill="#e0c8ff"/>
      <path id="Caminho_1130" data-name="Caminho 1130" d="M0,1.206A40.325,40.325,0,0,1,9.437,0a30.653,30.653,0,0,1,6.655.442l-.468,6.636s-1.574.456-6.587.456A16.6,16.6,0,0,0,0,10.606Z" transform="translate(-740.872 7067.722) rotate(-123)" fill="#ffd833"/>
      <path id="Caminho_1131" data-name="Caminho 1131" d="M0,.754A25.2,25.2,0,0,1,5.9,0a19.158,19.158,0,0,1,4.159.276L9.764,4.423a17.843,17.843,0,0,1-4.117.285A10.373,10.373,0,0,0,0,6.629Z" transform="matrix(0.819, -0.574, 0.574, 0.819, -744.172, 6980.027)" fill="#574596"/>
      <path id="Caminho_1132" data-name="Caminho 1132" d="M0,1.206A40.325,40.325,0,0,1,9.437,0a30.653,30.653,0,0,1,6.655.442l1.737,5.434A26.964,26.964,0,0,0,9.155,4.493c-5.013,0-6.794,1.616-6.794,1.616Z" transform="matrix(0.819, -0.574, 0.574, 0.819, -911.485, 7013.866)" fill="#ffe05f"/>
      <path id="Caminho_1133" data-name="Caminho 1133" d="M0,4.924S8.007,0,13.02,0s7.032,4.924,7.032,4.924L18.9,10.346a7.317,7.317,0,0,0-6.682-4.679C7.208,5.667,0,14.324,0,14.324Z" transform="matrix(0.105, 0.995, -0.995, 0.105, -883.316, 7044.081)" fill="#f667a7"/>
      <path id="Caminho_1134" data-name="Caminho 1134" d="M0,2.442S3.971,0,6.457,0A4.032,4.032,0,0,1,9.945,2.442l-.57,2.689A3.629,3.629,0,0,0,6.061,2.81C3.575,2.81,0,7.1,0,7.1Z" transform="translate(-894.512 6901.268) rotate(-135)" fill="#ffd833"/>
      <path id="Caminho_1137" data-name="Caminho 1137" d="M0,2.442S3.971,0,6.457,0A4.032,4.032,0,0,1,9.945,2.442l-.57,2.689A3.629,3.629,0,0,0,6.061,2.81C3.575,2.81,0,7.1,0,7.1Z" transform="translate(-749.512 6945.268) rotate(-135)" fill="#ffd833"/>
      <path id="Caminho_1135" data-name="Caminho 1135" d="M0,2.164A21.785,21.785,0,0,1,9.126,0c5.013,0,7.032,4.924,7.032,4.924l-1.111,3.6A6.5,6.5,0,0,0,8.739,4.1,17.948,17.948,0,0,0,.467,5.973Z" transform="matrix(0.819, -0.574, 0.574, 0.819, -899.774, 6925.871)" fill="#5abb97"/>
      <path id="Caminho_1136" data-name="Caminho 1136" d="M0,2.164A21.785,21.785,0,0,1,9.126,0c5.013,0,7.032,4.924,7.032,4.924l-1.111,3.6A6.5,6.5,0,0,0,8.739,4.1,17.948,17.948,0,0,0,.467,5.973Z" transform="matrix(0.829, 0.559, -0.559, 0.829, -701.396, 7007.539)" fill="#5abb97"/>
    </g>
  </g>
</svg>
