<svg xmlns="http://www.w3.org/2000/svg" xmlns:xlink="http://www.w3.org/1999/xlink" width="8" height="8" viewBox="0 0 8 8">
  <defs>
    <clipPath id="clip-path">
      <rect width="8" height="8" fill="none"/>
    </clipPath>
  </defs>
  <g id="icon_attached" clip-path="url(#clip-path)">
    <path id="Caminho_362" data-name="Caminho 362" d="M7.339.691A2.57,2.57,0,0,0,5.623,0,2.5,2.5,0,0,0,3.907.691a.546.546,0,0,0-.146.4.761.761,0,0,0,.146.4.55.55,0,0,0,.4.145h0a.768.768,0,0,0,.4-.145,1.371,1.371,0,0,1,1.9,0,1.53,1.53,0,0,1,.329.909,1.318,1.318,0,0,1-.4.945L3.359,6.509a1.371,1.371,0,0,1-1.9,0A1.357,1.357,0,0,1,1.1,5.6a1.318,1.318,0,0,1,.4-.945L2.848,3.309a.4.4,0,0,1,.548,0,.441.441,0,0,1,0,.582l-.986.982a.546.546,0,0,0-.146.4.761.761,0,0,0,.146.4.607.607,0,0,0,.767,0l.986-.982a1.488,1.488,0,0,0,0-2.109A1.465,1.465,0,0,0,3.1,2.145a1.3,1.3,0,0,0-1.022.4L.73,3.891A2.3,2.3,0,0,0,0,5.6,2.48,2.48,0,0,0,.694,7.309,2.57,2.57,0,0,0,2.41,8a2.5,2.5,0,0,0,1.716-.691L7.3,4.145A2.327,2.327,0,0,0,8,2.436,2.376,2.376,0,0,0,7.339.691Z" fill="#bcbccb"/>
  </g>
</svg>
