<svg xmlns="http://www.w3.org/2000/svg" width="103" height="103" viewBox="0 0 103 103">
  <g id="icon_pasta" transform="translate(-4149.347 -249.37)">
    <g id="Caminho_898" data-name="Caminho 898" transform="translate(4154 275.314)" fill="none">
      <path d="M10.314,0h72.2A10.314,10.314,0,0,1,92.822,10.314V51.568A10.314,10.314,0,0,1,82.509,61.882h-72.2A10.314,10.314,0,0,1,0,51.568V2.7A22.691,22.691,0,0,1,10.314,0Z" stroke="none"/>
      <path d="M 10.31357574462891 8.399997711181641 C 9.65380859375 8.399997711181641 9.008621215820313 8.465545654296875 8.399993896484375 8.5697021484375 L 8.399993896484375 51.56793975830078 C 8.399993896484375 52.62309646606445 9.258415222167969 53.48151779174805 10.31357574462891 53.48151779174805 L 82.50867462158203 53.48151779174805 C 83.56383514404297 53.48151779174805 84.42227935791016 52.62309646606445 84.42227935791016 51.56793975830078 L 84.42227935791016 10.31357955932617 C 84.42227935791016 9.258419036865234 83.56383514404297 8.399997711181641 82.50867462158203 8.399997711181641 L 10.31357574462891 8.399997711181641 M 10.31357574462891 -3.814697265625e-06 L 82.50867462158203 -3.814697265625e-06 C 88.20471954345703 -3.814697265625e-06 92.82227325439453 4.617557525634766 92.82227325439453 10.31357955932617 L 92.82227325439453 51.56793975830078 C 92.82227325439453 57.26395797729492 88.20471954345703 61.88151931762695 82.50867462158203 61.88151931762695 L 10.31357574462891 61.88151931762695 C 4.617538452148438 61.88151931762695 0 57.26395797729492 0 51.56793975830078 L 0 2.698558807373047 C 0 2.698558807373047 4.617538452148438 -3.814697265625e-06 10.31357574462891 -3.814697265625e-06 Z" stroke="none" fill="#f5822b"/>
    </g>
    <path id="Caminho_899" data-name="Caminho 899" d="M5.157,1H37.349c0,.329,9.128,8.448,13.068,15.47H5.157C2.309,16.47,0,19.318,0,16.47V6.157A5.157,5.157,0,0,1,5.157,1Z" transform="translate(4154 264)" fill="#f5822b"/>
    <rect id="Retângulo_1968" data-name="Retângulo 1968" width="103" height="103" transform="translate(4149.347 249.37)" fill="none"/>
  </g>
</svg>
