<svg xmlns="http://www.w3.org/2000/svg" width="103" height="103" viewBox="0 0 103 103">
  <g id="icon_engrenagem" transform="translate(-2.335 -2)">
    <path id="Caminho_724" data-name="Caminho 724" d="M78.815,50.98a34.762,34.762,0,0,0,.312-4.372,34.765,34.765,0,0,0-.312-4.372l9.412-7.36a2.25,2.25,0,0,0,.535-2.855L79.841,16.587a2.228,2.228,0,0,0-1.963-1.115,2.084,2.084,0,0,0-.758.134L66.013,20.066a32.591,32.591,0,0,0-7.539-4.372l-1.7-11.821A2.175,2.175,0,0,0,54.593,2H36.75a2.175,2.175,0,0,0-2.186,1.874l-1.7,11.821a34.272,34.272,0,0,0-7.539,4.372L14.223,15.606a2.526,2.526,0,0,0-.8-.134A2.209,2.209,0,0,0,11.5,16.587L2.58,32.021a2.2,2.2,0,0,0,.535,2.855l9.412,7.36a35.377,35.377,0,0,0-.312,4.372,35.377,35.377,0,0,0,.312,4.372L3.115,58.34A2.251,2.251,0,0,0,2.58,61.2L11.5,76.63a2.228,2.228,0,0,0,1.963,1.115,2.084,2.084,0,0,0,.758-.134L25.33,73.15a32.591,32.591,0,0,0,7.539,4.372l1.7,11.821a2.175,2.175,0,0,0,2.186,1.874H54.593a2.175,2.175,0,0,0,2.186-1.874l1.7-11.821a34.272,34.272,0,0,0,7.539-4.372L77.12,77.611a2.526,2.526,0,0,0,.8.134,2.209,2.209,0,0,0,1.918-1.115L88.763,61.2a2.251,2.251,0,0,0-.535-2.855Zm-8.832-7.628a23.833,23.833,0,0,1,.223,3.256c0,.937-.089,1.918-.223,3.256l-.625,5.041,3.97,3.123,4.818,3.747-3.123,5.4L69.359,64.9l-4.639-1.874L60.7,66.057a26.126,26.126,0,0,1-5.576,3.256L50.4,71.232l-.714,5.041-.892,6.022H42.549L41.7,76.273l-.714-5.041-4.728-1.918a25.31,25.31,0,0,1-5.487-3.167l-4.059-3.123-4.728,1.918-5.665,2.275L13.2,61.82l4.818-3.747,3.97-3.123-.625-5.041c-.134-1.383-.223-2.409-.223-3.3s.089-1.918.223-3.256l.625-5.041-3.97-3.123L13.2,31.441l3.123-5.4,5.665,2.275,4.639,1.874,4.015-3.033A26.125,26.125,0,0,1,36.215,23.9l4.728-1.918.714-5.041.892-6.022h6.2l.848,6.022.714,5.041L55.039,23.9a25.31,25.31,0,0,1,5.487,3.167l4.059,3.123,4.728-1.918L74.979,26,78.1,31.4l-4.773,3.792-3.97,3.123.625,5.041ZM45.672,28.765A17.843,17.843,0,1,0,63.515,46.608,17.838,17.838,0,0,0,45.672,28.765Zm0,26.765a8.922,8.922,0,1,1,8.922-8.922A8.948,8.948,0,0,1,45.672,55.53Z" transform="translate(7.858 6.922)" fill="#f5822b"/>
    <rect id="Retângulo_1971" data-name="Retângulo 1971" width="103" height="103" transform="translate(2.335 2)" fill="none"/>
  </g>
</svg>
