<svg xmlns="http://www.w3.org/2000/svg" width="103" height="103" viewBox="0 0 103 103">
  <g id="icon_headset" transform="translate(-3881 -68)">
    <path id="icon_headset-2" data-name="icon_headset" d="M65.785,49.5V64.425H55.232V49.5H65.785m-50.953,0V64.425H11.1A3.742,3.742,0,0,1,7.37,60.694V49.5h7.462M36.578,1A33.58,33.58,0,0,0,3,34.578V60.694c0,6.193,5,8.1,11.193,8.1H19.2V45.131H7.37V34.578C7.37,20.139,22.139,5.37,36.578,5.37S65.785,20.139,65.785,34.578V45.131H50.862V68.795H64.755v9.914H36.578v4.37H62.054c6.193,0,8.1-5,8.1-11.193V34.578A33.58,33.58,0,0,0,36.578,1Z" transform="translate(3895.378 76.5)" fill="#f5822b" stroke="#f5822b" stroke-width="5"/>
    <rect id="Retângulo_1966" data-name="Retângulo 1966" width="103" height="103" transform="translate(3881 68)" fill="none"/>
  </g>
</svg>
