<?xml version="1.0" encoding="utf-8"?>
<!-- Generator: Adobe Illustrator 24.0.2, SVG Export Plug-In . SVG Version: 6.00 Build 0)  -->
<svg version="1.1" id="icon_engrenagem" xmlns="http://www.w3.org/2000/svg" xmlns:xlink="http://www.w3.org/1999/xlink" x="0px"
	 y="0px" viewBox="0 0 107.1 107.1" style="enable-background:new 0 0 107.1 107.1;" xml:space="preserve">
<style type="text/css">
	.st0{fill:none;}
	.st1{fill:#F5822B;}
</style>
<path id="Caminho_723" class="st0" d="M0,0h107.1v107.1H0V0z"/>
<path id="Caminho_724" class="st1" d="M93.3,58.8c0.2-1.7,0.4-3.5,0.4-5.2c0-1.8-0.1-3.5-0.4-5.2l11.3-8.8c1-0.8,1.3-2.3,0.6-3.4
	L94.5,17.5c-0.5-0.8-1.4-1.4-2.4-1.3c-0.3,0-0.6,0.1-0.9,0.2l-13.3,5.4c-2.8-2.1-5.8-3.9-9-5.2l-2-14.2C66.7,0.9,65.6,0,64.2,0H42.8
	c-1.3,0-2.4,0.9-2.6,2.2l-2,14.2c-3.2,1.4-6.3,3.1-9,5.2l-13.3-5.4c-0.3-0.1-0.6-0.2-1-0.2c-1,0-1.8,0.5-2.3,1.3L1.8,36
	c-0.7,1.1-0.4,2.6,0.6,3.4l11.3,8.8c-0.2,1.7-0.4,3.5-0.4,5.2c0,1.8,0.1,3.5,0.4,5.2L2.5,67.6c-1,0.8-1.3,2.3-0.6,3.4l10.7,18.5
	c0.5,0.8,1.4,1.4,2.4,1.3c0.3,0,0.6-0.1,0.9-0.2l13.3-5.4c2.8,2.1,5.8,3.9,9,5.2l2,14.2c0.2,1.3,1.3,2.3,2.6,2.2h21.4
	c1.3,0,2.4-0.9,2.6-2.2l2-14.2c3.2-1.4,6.3-3.1,9-5.2l13.3,5.4c0.3,0.1,0.6,0.2,1,0.2c1,0,1.8-0.5,2.3-1.3L105.2,71
	c0.7-1.1,0.4-2.6-0.6-3.4L93.3,58.8z M82.7,49.6c0.2,1.3,0.3,2.6,0.3,3.9c0,1.1-0.1,2.3-0.3,3.9l-0.8,6l4.8,3.7l5.8,4.5l-3.7,6.5
	L82,75.5l-5.6-2.2l-4.8,3.6c-2.1,1.6-4.3,2.9-6.7,3.9l-5.7,2.3l-0.9,6l-1.1,7.2h-7.5l-1-7.2l-0.9-6l-5.7-2.3c-2.3-1-4.6-2.3-6.6-3.8
	l-4.9-3.7l-5.7,2.3l-6.8,2.7l-3.7-6.5l5.8-4.5l4.8-3.7l-0.8-6c-0.2-1.7-0.3-2.9-0.3-4s0.1-2.3,0.3-3.9l0.8-6l-4.8-3.7l-5.8-4.5
	l3.7-6.5l6.8,2.7l5.6,2.2l4.8-3.6c2.1-1.6,4.3-2.9,6.7-3.9l5.7-2.3l0.9-6l1.1-7.2h7.4l1,7.2l0.9,6l5.7,2.3c2.3,1,4.6,2.3,6.6,3.8
	l4.9,3.7l5.7-2.3l6.8-2.7l3.7,6.5l-5.7,4.6L82,43.6L82.7,49.6L82.7,49.6z M53.5,32.1c-11.8,0-21.4,9.6-21.4,21.4s9.6,21.4,21.4,21.4
	s21.4-9.6,21.4-21.4C74.9,41.7,65.4,32.1,53.5,32.1C53.5,32.1,53.5,32.1,53.5,32.1z M53.5,64.2c-5.9,0-10.7-4.8-10.7-10.7
	c0-5.9,4.8-10.7,10.7-10.7c5.9,0,10.7,4.8,10.7,10.7C64.2,59.4,59.4,64.2,53.5,64.2z"/>
</svg>
