<svg id="icon_cog_sml" xmlns="http://www.w3.org/2000/svg" width="18.28" height="18.28" viewBox="0 0 18.28 18.28">
  <path id="Caminho_723" data-name="Caminho 723" d="M0,0H18.28V18.28H0Z" fill="none"/>
  <path id="Caminho_724" data-name="Caminho 724" d="M15.341,10.363a5.935,5.935,0,0,0,.053-.746,5.936,5.936,0,0,0-.053-.746l1.607-1.257a.384.384,0,0,0,.091-.487L15.516,4.491a.38.38,0,0,0-.335-.19.356.356,0,0,0-.129.023l-1.9.762a5.565,5.565,0,0,0-1.287-.746L11.578,2.32A.371.371,0,0,0,11.2,2H8.158a.371.371,0,0,0-.373.32L7.5,4.338a5.852,5.852,0,0,0-1.287.746l-1.9-.762A.431.431,0,0,0,4.174,4.3a.377.377,0,0,0-.328.19L2.323,7.126a.376.376,0,0,0,.091.487L4.022,8.87a6.041,6.041,0,0,0-.053.746,6.041,6.041,0,0,0,.053.746L2.415,11.62a.384.384,0,0,0-.091.487l1.523,2.635a.38.38,0,0,0,.335.19.356.356,0,0,0,.129-.023l1.9-.762A5.565,5.565,0,0,0,7.5,14.9l.289,2.018a.371.371,0,0,0,.373.32H11.2a.371.371,0,0,0,.373-.32l.289-2.018a5.852,5.852,0,0,0,1.287-.746l1.9.762a.431.431,0,0,0,.137.023.377.377,0,0,0,.328-.19l1.523-2.635a.384.384,0,0,0-.091-.487Zm-1.508-1.3a4.069,4.069,0,0,1,.038.556c0,.16-.015.328-.038.556l-.107.861.678.533.823.64-.533.922-.967-.388-.792-.32-.686.518a4.461,4.461,0,0,1-.952.556l-.807.328-.122.861-.152,1.028H9.148L9,14.682l-.122-.861-.807-.328a4.322,4.322,0,0,1-.937-.541l-.693-.533-.807.328-.967.388-.533-.922.823-.64.678-.533L5.53,10.18c-.023-.236-.038-.411-.038-.564s.015-.328.038-.556L5.637,8.2l-.678-.533-.823-.64.533-.922.967.388.792.32L7.114,6.3a4.461,4.461,0,0,1,.952-.556l.807-.328L9,4.552l.152-1.028h1.059l.145,1.028.122.861.807.328a4.322,4.322,0,0,1,.937.541l.693.533.807-.328.967-.388.533.922-.815.647-.678.533.107.861ZM9.681,6.57a3.047,3.047,0,1,0,3.047,3.047A3.046,3.046,0,0,0,9.681,6.57Zm0,4.57A1.523,1.523,0,1,1,11.2,9.617,1.528,1.528,0,0,1,9.681,11.14Z" transform="translate(-0.541 -0.477)" fill="#f5822b"/>
</svg>
