<svg xmlns="http://www.w3.org/2000/svg" width="14.388" height="14.388" viewBox="0 0 14.388 14.388">
  <g id="icon_fgts_orange_sml" transform="translate(-107.409 -290.649)">
    <path id="Retângulo_1956" data-name="Retângulo 1956" d="M0,0H1.814a0,0,0,0,1,0,0V12.575A1.814,1.814,0,0,1,0,14.388H0a0,0,0,0,1,0,0V0A0,0,0,0,1,0,0Z" transform="translate(107.409 290.649)" fill="#f5822b"/>
    <path id="Caminho_901" data-name="Caminho 901" d="M121.8,290.649H107.409v1.814h12.575A1.814,1.814,0,0,0,121.8,290.649Z" transform="translate(0)" fill="#f5822b"/>
    <path id="Caminho_902" data-name="Caminho 902" d="M133.295,312.19a4.345,4.345,0,0,0-2.887,7.593l6.135-6.134A4.335,4.335,0,0,0,133.295,312.19Z" transform="translate(-18.143 -18.144)" fill="#f5822b"/>
  </g>
</svg>
