<svg xmlns="http://www.w3.org/2000/svg" width="79.108" height="93" viewBox="0 0 79.108 93">
  <g id="icon_docs" transform="translate(-4538.5 49.5)">
    <g id="Grupo_1794" data-name="Grupo 1794" transform="translate(-181 -19)">
      <path id="Caminho_892" data-name="Caminho 892" d="M438.939,318.761v27.983a5.267,5.267,0,0,1-5.517,4.975H383.66a5.267,5.267,0,0,1-5.517-4.975V318.761a5.267,5.267,0,0,1,5.517-4.975h49.762A5.267,5.267,0,0,1,438.939,318.761Z" transform="translate(4356.169 -313.792)" fill="none" stroke="#f5822b" stroke-width="1"/>
      <path id="Caminho_893" data-name="Caminho 893" d="M436.87,318.761v27.983a3.292,3.292,0,0,1-3.448,3.109H383.66a3.292,3.292,0,0,1-3.448-3.109V318.761a3.292,3.292,0,0,1,3.448-3.11h49.762A3.292,3.292,0,0,1,436.87,318.761Z" transform="translate(4356.169 -313.792)" fill="none" stroke="#f5822b" stroke-width="7"/>
      <path id="Caminho_894" data-name="Caminho 894" d="M375,364.792a8,8,0,0,0,8,8h45a8,8,0,0,0,8-8V352.181a4.936,4.936,0,0,0,2.939-4.4V318.8c0-1.907-1.192-2.562-2.939-3.4V302.792a8,8,0,0,0-8-8" transform="translate(4356.169 -313.792)" fill="none" stroke="#f5822b" stroke-width="7"/>
      <path id="Caminho_895" data-name="Caminho 895" d="M433.422,314.826h-7.591V294.792a8,8,0,0,0-8-8h-43a8,8,0,0,0-8,8v60a8,8,0,0,0,8,8h43a8,8,0,0,0,8-8v-4.033h7.591a5.267,5.267,0,0,0,5.517-4.975V319.8A5.267,5.267,0,0,0,433.422,314.826Z" transform="translate(4356.169 -313.792)" fill="none" stroke="#f5822b" stroke-width="7"/>
      <path id="Caminho_896" data-name="Caminho 896" d="M376,286.792v18.922l7-7,7,7V286.792" transform="translate(4356.169 -313.792)" fill="none" stroke="#f5822b" stroke-width="7"/>
    </g>
  </g>
</svg>
