<svg xmlns="http://www.w3.org/2000/svg" width="18.353" height="16.244" viewBox="0 0 18.353 16.244">
  <g id="icon_handshake_sml" transform="translate(0.289 0.25)">
    <path id="Caminho_662" data-name="Caminho 662" d="M44.889,199.106a.387.387,0,0,0-.548,0L42.8,200.643a.387.387,0,0,0-.108.337,2.09,2.09,0,0,1-.578,1.817l-1.18,1.18-.5-.5a.387.387,0,0,0-.548.548l.771.771,0,0,0,0,.7.7a.6.6,0,0,1-.781.781.387.387,0,1,0-.548.548.6.6,0,0,1-.781.781.387.387,0,0,0-.548.548.5.5,0,0,1-.128.653.678.678,0,0,1-.394.2.32.32,0,0,1-.259-.072.387.387,0,1,0-.548.548.5.5,0,0,1-.128.653.677.677,0,0,1-.394.2.32.32,0,0,1-.259-.072l-.447-.447a1.326,1.326,0,0,0-.9-2.013,1.326,1.326,0,0,0-1.276-1.605c0-.009,0-.018,0-.027a1.324,1.324,0,0,0-1.246-1.324,1.326,1.326,0,0,0-2.261-1.029l-.15.15-.245-.246a2.09,2.09,0,0,1-.578-1.816s0-.007,0-.011,0-.015,0-.022,0-.012,0-.018,0-.012,0-.019,0-.014,0-.02,0-.011,0-.017,0-.014,0-.021l0-.017,0-.019-.005-.018-.006-.017-.008-.019-.007-.015-.01-.019-.008-.014-.012-.018-.011-.014-.012-.015-.014-.016-.008-.009-.442-.442a.387.387,0,0,0-.548.548l.308.308a2.864,2.864,0,0,0,.82,2.287l.246.246-.251.251a1.326,1.326,0,0,0,.938,2.264h0a1.326,1.326,0,0,0,1.318,1.329,1.324,1.324,0,0,0,1.456,1.335,1.327,1.327,0,0,0,2.259.825l.133-.132.424.424a1.064,1.064,0,0,0,.759.3,1.248,1.248,0,0,0,.13-.007,1.481,1.481,0,0,0,1.285-1.325l.043,0a1.481,1.481,0,0,0,1.285-1.326,1.476,1.476,0,0,0,1.329-1.329,1.434,1.434,0,0,0,.9-.426,1.248,1.248,0,0,0,.128-1.749l-.425-.426,1.18-1.18a2.864,2.864,0,0,0,.821-2.288l1.4-1.4A.387.387,0,0,0,44.889,199.106ZM30.847,206.1h0a.552.552,0,0,1-.78-.782l.949-.949a.552.552,0,1,1,.781.781l-.948.948Zm1.328,1.329a.552.552,0,0,1-.8-.76l.02-.021.864-.864a.552.552,0,0,1,.781.781l-.864.864Zm1.315,1.342a.552.552,0,0,1-.8-.757l.025-.026.012-.012,0,0,.836-.836a.552.552,0,0,1,.781.781l-.257.257-.471.471-.121.121Zm.672,1.2a.553.553,0,0,1,0-.781l.471-.471a.552.552,0,0,1,.781.781l-.471.471A.553.553,0,0,1,34.163,209.973Zm0,0" transform="translate(-27.187 -195.371)" fill="#f5822b" stroke="#f5822b" stroke-width="0.5"/>
    <path id="Caminho_663" data-name="Caminho 663" d="M94.925,108.373a1.323,1.323,0,0,0,.036.454,1.388,1.388,0,0,0,1.536.968l1.678-.075,2.222,2.222a.387.387,0,0,0,.548-.548L98.6,109.052a.388.388,0,0,0-.291-.113l-1.849.083c-.151.007-.652,0-.751-.387a.555.555,0,0,1,.4-.672c2.311-.591,4.1-.961,6.062-.325a.387.387,0,0,0,.393-.095l1.4-1.4a.387.387,0,0,0-.548-.548l-1.237,1.237c-2.07-.6-3.989-.2-6.264.382a1.315,1.315,0,0,0-.658.4l-1.09-1.09a.387.387,0,1,0-.548.548Zm0,0" transform="translate(-89.887 -105.48)" fill="#f5822b" stroke="#f5822b" stroke-width="0.5"/>
    <path id="Caminho_665" data-name="Caminho 665" d="M296.882,283.651a.387.387,0,1,0,.547.026h0A.387.387,0,0,0,296.882,283.651Zm0,0" transform="translate(-285.262 -276.654)" fill="#f5822b" stroke="#f5822b" stroke-width="0.5"/>
    <path id="Caminho_666" data-name="Caminho 666" d="M.663,223.061a.387.387,0,1,0,0,.548.387.387,0,0,0,0-.548Zm0,0" transform="translate(-0.001 -218.398)" fill="#f5822b" stroke="#f5822b" stroke-width="0.5"/>
  </g>
</svg>
