<svg xmlns="http://www.w3.org/2000/svg" width="78.448" height="78.449" viewBox="0 0 78.448 78.449">
  <g id="icon_fgts_orange" transform="translate(-107.409 -290.649)">
    <path id="Retângulo_1956" data-name="Retângulo 1956" d="M0,0H9.889a0,0,0,0,1,0,0V68.56A9.889,9.889,0,0,1,0,78.448H0a0,0,0,0,1,0,0V0A0,0,0,0,1,0,0Z" transform="translate(107.409 290.649)" fill="#f5822b"/>
    <path id="Caminho_901" data-name="Caminho 901" d="M185.857,290.649H107.409v9.889h68.56A9.888,9.888,0,0,0,185.857,290.649Z" fill="#f5822b"/>
    <path id="Caminho_902" data-name="Caminho 902" d="M152.644,312.19a23.691,23.691,0,0,0-15.741,41.4l33.448-33.446A23.636,23.636,0,0,0,152.644,312.19Z" transform="translate(-3.017 -3.017)" fill="#f5822b"/>
  </g>
</svg>
