<svg xmlns="http://www.w3.org/2000/svg" width="16.69" height="16.713" viewBox="0 0 16.69 16.713">
  <g id="icon_star_sml" transform="translate(0.761 0.75)">
    <path id="Caminho_362" data-name="Caminho 362" d="M14.882,6.561a.9.9,0,0,0-.442-1.514l-4.164-.631h0L8.51.568a.923.923,0,0,0-1.7,0L4.913,4.416h0L.686,5.047A.9.9,0,0,0,.245,6.561L3.273,9.716v.063l-.694,4.227a.979.979,0,0,0,1.388,1.073L7.5,13.06h.063L11.1,15.015a.979.979,0,0,0,1.388-1.073L11.79,9.716V9.653Z" transform="translate(0.021 0)" fill="none" stroke="#f5822b" stroke-width="1.5"/>
  </g>
</svg>
