<svg xmlns="http://www.w3.org/2000/svg" width="12.167" height="14.715" viewBox="0 0 12.167 14.715">
  <path id="icon_headset_sml" d="M13.72,9.282V11.83h-1.8V9.282h1.8m-8.7,0V11.83H4.383a.639.639,0,0,1-.637-.637V9.282H5.02M8.733,1A5.734,5.734,0,0,0,3,6.733v4.459c0,1.057.854,1.383,1.911,1.383h.855V8.535H3.746v-1.8A5.409,5.409,0,0,1,8.733,1.746,5.409,5.409,0,0,1,13.72,6.733v1.8H11.172v4.041h2.372v1.693H8.733v.746h4.35c1.057,0,1.383-.854,1.383-1.911V6.733A5.734,5.734,0,0,0,8.733,1Z" transform="translate(-2.65 -0.65)" fill="#f5822b" stroke="#f5822b" stroke-width="0.7"/>
</svg>
