<svg xmlns="http://www.w3.org/2000/svg" width="18" height="14" viewBox="0 0 18 14">
  <g id="icon_folder_sml" transform="translate(-4154 -265)">
    <g id="Caminho_898" data-name="Caminho 898" transform="translate(4154 267)" fill="none">
      <path d="M2,0H16a2,2,0,0,1,2,2v8a2,2,0,0,1-2,2H2a2,2,0,0,1-2-2V.523A4.4,4.4,0,0,1,2,0Z" stroke="none"/>
      <path d="M 2 1.399999618530273 C 1.786903381347656 1.399999618530273 1.581872940063477 1.431781768798828 1.399999618530273 1.475858688354492 L 1.399999618530273 10 C 1.399999618530273 10.33084011077881 1.669160842895508 10.60000038146973 2 10.60000038146973 L 16 10.60000038146973 C 16.33083915710449 10.60000038146973 16.60000038146973 10.33084011077881 16.60000038146973 10 L 16.60000038146973 2 C 16.60000038146973 1.669159889221191 16.33083915710449 1.399999618530273 16 1.399999618530273 L 2 1.399999618530273 M 2 0 L 16 0 C 17.10457038879395 0 18 0.8954296112060547 18 2 L 18 10 C 18 11.10457038879395 17.10457038879395 12 16 12 L 2 12 C 0.8954296112060547 12 0 11.10457038879395 0 10 L 0 0.5233001708984375 C 0 0.5233001708984375 0.8954296112060547 0 2 0 Z" stroke="none" fill="#f5822b"/>
    </g>
    <path id="Caminho_899" data-name="Caminho 899" d="M1,1H7.243A18.687,18.687,0,0,1,9.777,4H1C.448,4,0,4.552,0,4V2A1,1,0,0,1,1,1Z" transform="translate(4154 264)" fill="#f5822b"/>
  </g>
</svg>
